Coordinates
version=1
nRows=18
nColumns=63
inDegrees=yes

Units are S.I. units (second, meters, Newtons, ...)
If the header above contains a line with 'inDegrees', this indicates whether rotational values are in degrees (yes) or radians (no).

endheader
time	pelvis_tilt	pelvis_list	pelvis_rotation	pelvis_tx	pelvis_ty	pelvis_tz	hip_flexion_r	hip_adduction_r	hip_rotation_r	knee_angle_r	knee_angle_r_beta	ankle_angle_r	subtalar_angle_r	mtp_angle_r	hip_flexion_l	hip_adduction_l	hip_rotation_l	knee_angle_l	knee_angle_l_beta	ankle_angle_l	subtalar_angle_l	mtp_angle_l	L5_S1_Flex_Ext	L5_S1_Lat_Bending	L5_S1_axial_rotation	L4_L5_Flex_Ext	L4_L5_Lat_Bending	L4_L5_axial_rotation	L3_L4_Flex_Ext	L3_L4_Lat_Bending	L3_L4_axial_rotation	L2_L3_Flex_Ext	L2_L3_Lat_Bending	L2_L3_axial_rotation	L1_L2_Flex_Ext	L1_L2_Lat_Bending	L1_L2_axial_rotation	L1_T12_Flex_Ext	L1_T12_Lat_Bending	L1_T12_axial_rotation	Abs_r3	Abs_r2	Abs_r1	Abs_t1	Abs_t2	neck_flexion	neck_bending	neck_rotation	arm_flex_r	arm_add_r	arm_rot_r	elbow_flex_r	pro_sup_r	wrist_flex_r	wrist_dev_r	arm_flex_l	arm_add_l	arm_rot_l	elbow_flex_l	pro_sup_l	wrist_flex_l	wrist_dev_l
3.132075	3.026130	-5.724028	89.735834	0.183362	0.695337	0.848752	24.857042	2.586793	9.602849	24.105908	0.420727	37.439128	-10.498773	0.000000	18.973440	-0.947945	-8.658480	15.470099	0.270004	42.313209	5.739802	0.000000	0.258947	0.434849	0.478546	0.480891	0.578349	0.508455	0.425425	1.057291	0.508455	0.295951	1.057291	0.418728	0.240459	0.886743	0.388818	0.147963	0.673581	0.358909	1.849635	4.919095	2.661528	0.000000	0.000000	28.237988	0.539338	7.532699	13.716703	-8.107532	38.622305	27.044657	71.036374	-10.586249	-9.278227	18.164856	2.251963	166.186691	1.706498	11.533532	-25.955589	-10.423309
3.150943	3.127777	-5.749341	89.705748	0.182875	0.696169	0.848246	24.636195	2.650332	9.704147	23.662582	0.412990	37.185927	-10.539632	0.000000	18.857708	-0.925815	-8.053067	15.152448	0.264460	41.992082	4.863182	0.000000	0.285841	0.460276	0.504265	0.530835	0.612167	0.535781	0.469608	1.119114	0.535781	0.326687	1.119114	0.441231	0.265432	0.938594	0.409715	0.163329	0.712967	0.378198	2.041732	5.206730	2.804568	0.000000	0.000000	28.260803	0.493495	7.438542	13.544259	-8.262229	38.021666	27.334973	71.739947	-10.658709	-9.400390	18.109224	2.693883	170.084825	0.542369	5.584651	-23.752423	-11.520077
3.169811	3.204576	-5.772257	89.656520	0.182468	0.696950	0.847800	24.428457	2.699927	9.818045	23.250840	0.405804	36.982647	-10.535401	0.000000	18.730784	-0.894542	-7.489960	14.824114	0.258730	41.668875	4.023069	0.000000	0.312245	0.479895	0.530564	0.579870	0.638260	0.563724	0.512987	1.166817	0.563724	0.356865	1.166817	0.464243	0.289951	0.978602	0.431083	0.178417	0.743357	0.397923	2.230334	5.428669	2.950836	0.000000	0.000000	28.276128	0.470529	7.364688	13.398910	-8.397602	37.419143	27.619911	72.507297	-10.786279	-9.428424	18.026478	2.928003	171.586906	-0.188168	1.055574	-21.474489	-12.697061
3.188679	3.248838	-5.791588	89.573622	0.182151	0.697649	0.847442	24.239734	2.739788	9.982703	22.877599	0.399289	36.821303	-10.532789	0.000000	18.589713	-0.839919	-6.901505	14.478462	0.252697	41.321292	3.112246	0.000000	0.337160	0.493185	0.556379	0.626139	0.655935	0.591153	0.553920	1.199129	0.591153	0.385340	1.199129	0.486832	0.313086	1.005702	0.452058	0.192653	0.763943	0.417284	2.408298	5.579002	3.094414	0.000000	0.000000	28.285424	0.491446	7.322942	13.286895	-8.500680	36.797865	27.890292	73.387849	-10.962078	-9.324231	17.887119	2.923726	170.222900	-0.374447	-1.836377	-19.055963	-13.962662
3.207547	3.275583	-5.787105	89.468931	0.181953	0.698256	0.847199	24.057557	2.778625	10.161344	22.562882	0.393797	36.700257	-10.527416	0.000000	18.433122	-0.793384	-6.394376	14.164001	0.247208	41.000479	2.300424	0.000000	0.356982	0.501556	0.576460	0.662952	0.667069	0.612489	0.586486	1.219482	0.612489	0.407995	1.219482	0.504402	0.331494	1.022772	0.468374	0.203980	0.776910	0.432345	2.549889	5.673698	3.206097	0.000000	0.000000	28.291032	0.550697	7.317911	13.218813	-8.556582	36.120768	28.138285	74.353870	-11.038613	-9.002430	17.719967	2.673283	165.855206	-0.011083	-2.667941	-16.708006	-15.318801
3.226415	3.343394	-5.730958	89.350807	0.181676	0.698883	0.847065	23.826106	2.857628	10.322403	22.259333	0.388499	36.570395	-10.524002	0.000000	18.225837	-0.802197	-5.956263	13.871109	0.242097	40.709355	1.601801	0.000000	0.368975	0.514276	0.601564	0.685224	0.683987	0.639162	0.606189	1.250411	0.639162	0.421702	1.250411	0.526368	0.342630	1.048712	0.488771	0.210832	0.796614	0.451173	2.635552	5.817594	3.345718	0.000000	0.000000	28.287506	0.556748	7.283244	13.197762	-8.668699	35.619148	28.378263	75.039512	-11.084862	-8.563051	18.056855	2.596168	163.751103	-0.269745	-5.534542	-14.246584	-17.246295
3.245283	3.347301	-5.665994	89.199347	0.181599	0.699315	0.847046	23.633209	2.895688	10.496201	22.055063	0.384933	36.494649	-10.517965	0.000000	18.021235	-0.783395	-5.658066	13.619141	0.237699	40.459953	1.068371	0.000000	0.377997	0.517053	0.615102	0.701978	0.687680	0.653546	0.621011	1.257162	0.653546	0.432013	1.257162	0.538214	0.351008	1.054374	0.499770	0.215987	0.800915	0.461327	2.699994	5.849003	3.421013	0.000000	0.000000	28.282465	0.681439	7.439433	13.244128	-8.698547	35.198496	28.582497	75.697285	-11.083054	-7.945869	18.118954	2.061594	155.940248	0.686516	-3.706807	-12.183091	-18.690351
3.264151	3.366064	-5.579556	89.071139	0.181508	0.699664	0.847062	23.427687	2.944537	10.646956	21.892447	0.382095	36.393540	-10.596182	0.000000	17.807113	-0.786829	-5.435392	13.402302	0.233914	40.259503	0.694696	0.000000	0.383594	0.521847	0.615464	0.712372	0.694057	0.653930	0.630206	1.268819	0.653930	0.438409	1.268819	0.538531	0.356205	1.064151	0.500064	0.219185	0.808341	0.461598	2.739970	5.903241	3.423025	0.000000	0.000000	28.275442	0.851979	7.788748	13.330706	-8.740647	34.936217	28.790590	76.192342	-11.057780	-7.257134	18.094650	1.711066	151.375120	1.205258	-4.055989	-10.329176	-19.578457
3.283019	3.349831	-5.476663	88.942702	0.181517	0.699868	0.847141	23.244844	2.961966	10.763907	21.825764	0.380931	36.315622	-10.676882	0.000000	17.593915	-0.772300	-5.272474	13.234753	0.230990	40.100064	0.425253	0.000000	0.385798	0.521865	0.606009	0.716465	0.694081	0.643884	0.633828	1.268863	0.643884	0.440929	1.268863	0.530258	0.358252	1.064188	0.492382	0.220445	0.808369	0.454507	2.755717	5.903445	3.370440	0.000000	0.000000	28.269525	1.112297	8.363913	13.449676	-8.739912	34.743339	28.998118	76.590905	-10.989113	-6.441907	17.896388	1.194323	144.996978	2.232144	-2.458078	-8.905830	-19.961495
3.301887	3.313067	-5.360755	88.838848	0.181610	0.699956	0.847272	23.066313	2.962353	10.870556	21.805810	0.380583	36.217974	-10.839976	0.000000	17.382907	-0.742981	-5.143417	13.099480	0.228629	39.972257	0.246069	0.000000	0.384492	0.517363	0.599626	0.714040	0.688092	0.637102	0.631682	1.257915	0.637102	0.439436	1.257915	0.524672	0.357039	1.055006	0.487196	0.219699	0.801395	0.449719	2.746389	5.852509	3.334938	0.000000	0.000000	28.263682	1.424763	8.963522	13.536863	-8.742546	34.546195	29.248173	77.013944	-10.959075	-5.730181	17.582460	0.566221	137.422417	3.687909	1.052811	-7.832430	-19.790799
3.320755	3.235933	-5.242924	88.754536	0.181801	0.699944	0.847440	22.913452	2.925735	10.967905	21.847648	0.381313	36.126147	-11.046115	0.000000	17.177612	-0.666545	-4.958556	12.973667	0.226433	39.839617	0.031445	0.000000	0.380309	0.505938	0.595137	0.706271	0.672897	0.632333	0.624809	1.230137	0.632333	0.434655	1.230137	0.520745	0.353155	1.031708	0.483549	0.217308	0.783698	0.446353	2.716507	5.723270	3.309974	0.000000	0.000000	28.259287	1.782951	9.567216	13.573231	-8.710606	34.166440	29.533920	77.628994	-10.939979	-5.079440	17.173290	-0.156160	129.105392	5.466771	6.079772	-7.251665	-19.213545
3.339623	3.132955	-5.132289	88.665980	0.182103	0.699844	0.847611	22.789825	2.868264	11.046583	21.929696	0.382745	36.060261	-11.233462	0.000000	16.987666	-0.574612	-4.825435	12.868399	0.224596	39.729270	-0.118474	0.000000	0.373686	0.490234	0.593599	0.693973	0.652012	0.630699	0.613929	1.191956	0.630699	0.427086	1.191956	0.519399	0.347005	0.999686	0.482299	0.213524	0.759373	0.445199	2.669204	5.545629	3.301418	0.000000	0.000000	28.257118	2.184883	10.231301	13.581694	-8.668009	33.761189	29.859658	78.287289	-10.941153	-4.499868	16.668027	-0.955069	120.245609	7.525829	12.342294	-7.096743	-18.244503
3.358491	3.003184	-5.035466	88.600814	0.182451	0.699679	0.847794	22.704343	2.779308	11.092855	22.054454	0.384923	36.012813	-11.421850	0.000000	16.820267	-0.454825	-4.701721	12.772979	0.222931	39.620364	-0.219507	0.000000	0.364931	0.469873	0.588430	0.677714	0.624931	0.625207	0.599546	1.142448	0.625207	0.417080	1.142448	0.514876	0.338875	0.958164	0.478099	0.208522	0.727833	0.441322	2.606668	5.315293	3.272671	0.000000	0.000000	28.256492	2.623805	10.894651	13.576832	-8.594759	33.336281	30.167777	78.929891	-10.934541	-4.051006	16.106554	-1.795648	111.144303	9.717004	19.525506	-7.381980	-17.092386
3.377358	2.852106	-4.954041	88.528653	0.182878	0.699470	0.847952	22.655385	2.674329	11.133300	22.213864	0.387705	35.982093	-11.590738	0.000000	16.673468	-0.318857	-4.618661	12.684767	0.221391	39.506534	-0.308826	0.000000	0.353808	0.446122	0.578758	0.657057	0.593343	0.614931	0.581272	1.084702	0.614931	0.404368	1.084702	0.506413	0.328546	0.909733	0.470241	0.202166	0.691044	0.434069	2.527217	5.046626	3.218879	0.000000	0.000000	28.255833	3.116205	11.631107	13.579565	-8.492084	32.939680	30.447548	79.555205	-10.841622	-3.644135	15.476649	-2.677161	101.910855	12.014369	27.355562	-8.033149	-15.818294
3.396226	2.700660	-4.897389	88.483708	0.183303	0.699228	0.848053	22.638044	2.560033	11.137581	22.383571	0.390667	35.956486	-11.750174	0.000000	16.555995	-0.175568	-4.521040	12.594021	0.219807	39.388780	-0.393421	0.000000	0.342442	0.421552	0.559813	0.635950	0.560664	0.594801	0.562599	1.024962	0.594801	0.391377	1.024962	0.489836	0.317992	0.859629	0.454848	0.195672	0.652984	0.419860	2.446032	4.768682	3.113512	0.000000	0.000000	28.254864	3.617574	12.388542	13.587737	-8.363746	32.592748	30.666432	80.077145	-10.700269	-3.340521	14.810490	-3.557097	92.621066	14.301228	35.635853	-8.937607	-14.542971
3.415094	2.557300	-4.873753	88.484191	0.183664	0.698961	0.848039	22.648973	2.435477	11.092048	22.547153	0.393522	35.940775	-11.890573	0.000000	16.479248	-0.029094	-4.413650	12.510807	0.218355	39.283112	-0.450143	0.000000	0.333477	0.397273	0.533682	0.619300	0.528373	0.567038	0.547869	0.965929	0.567038	0.381131	0.965929	0.466972	0.309667	0.810119	0.433617	0.190549	0.615375	0.400262	2.381991	4.494028	2.968181	0.000000	0.000000	28.253851	4.082540	13.099932	13.573143	-8.220490	32.261028	30.840623	80.418806	-10.565151	-3.152228	14.141064	-4.389820	83.461467	16.476143	44.033702	-9.918427	-13.313606
3.433962	2.423395	-4.879107	88.518804	0.183972	0.698685	0.847924	22.678051	2.318379	11.075667	22.687967	0.395980	35.911624	-12.096390	0.000000	16.428464	0.129816	-4.195926	12.406487	0.216534	39.161071	-0.642436	0.000000	0.325498	0.374531	0.495362	0.604482	0.498126	0.526322	0.534760	0.910634	0.526322	0.372012	0.910634	0.433442	0.302257	0.763743	0.402482	0.185989	0.580148	0.371521	2.324999	4.236764	2.755054	0.000000	0.000000	28.252791	4.590185	13.957244	13.620273	-8.090000	32.203904	30.916446	80.396524	-10.429368	-3.081575	13.441042	-5.167481	74.323397	18.544846	52.546407	-10.897894	-12.126710
3.452830	2.304856	-4.911730	88.605300	0.184209	0.698392	0.847657	22.728434	2.194255	10.996948	22.820000	0.398284	35.928995	-12.230343	0.000000	16.413838	0.279657	-4.037193	12.315916	0.214953	39.096862	-0.728108	0.000000	0.321231	0.352209	0.461527	0.596559	0.468437	0.490372	0.527751	0.856360	0.490372	0.367135	0.856360	0.403836	0.298295	0.718224	0.374991	0.183552	0.545571	0.346145	2.294524	3.984254	2.566874	0.000000	0.000000	28.252971	4.971689	14.603778	13.613592	-7.953913	32.035547	30.971240	80.284078	-10.354159	-3.092922	12.820112	-5.855430	65.876889	20.385109	60.534382	-11.805029	-11.049450
